<svg height="15.506" viewBox="0 0 15.357 15.506" width="15.357" xmlns="http://www.w3.org/2000/svg"><g fill="#8e8484" stroke="#000" stroke-width=".3"><path d="m17.112 3.585h-1.328v-1.366a.445.445 0 0 0 -.445-.445h-1.366v-1.329a.445.445 0 0 0 -.446-.445h-10.582a.445.445 0 0 0 -.445.445v10.73a.445.445 0 0 0 .445.445h1.367v1.328a.445.445 0 0 0 .445.445h1.328v1.367a.445.445 0 0 0 .445.445h10.582a.445.445 0 0 0 .445-.445v-10.73a.445.445 0 0 0 -.445-.445zm-13.721 7.145v-9.839h9.691v9.839zm1.809 1.77v-.882h8.325a.445.445 0 0 0 .445-.445v-8.509h.921v9.836zm11.464 1.812h-9.688v-.921h8.363a.445.445 0 0 0 .445-.445v-8.47h.882z" transform="translate(-2.35 .15)"/><path d="m125.741 85.8a2.141 2.141 0 1 0 2.141 2.141 2.142 2.142 0 0 0 -2.141-2.141zm0 3.392a1.25 1.25 0 1 1 1.25-1.25 1.252 1.252 0 0 1 -1.25 1.25z" transform="translate(-119.853 -83.102)"/><path d="m90.374 265.1h-5.729a.445.445 0 1 0 0 .891h5.729a.445.445 0 1 0 0-.891z" transform="translate(-81.624 -257.077)"/></g></svg>