<svg height="22.021" viewBox="0 0 25.167 22.021" width="25.167" xmlns="http://www.w3.org/2000/svg"><g fill="#f2ca8a" transform="translate(0 -30.522)"><path d="m188.533 199.355a3.146 3.146 0 1 1 -4.449 0 3.146 3.146 0 0 1 4.449 0" transform="translate(-173.725 -159.26)"/><path d="m22.021 33.668h-2.174l-1.574-3.146h-11.381l-1.573 3.147h-2.171a3.152 3.152 0 0 0 -3.14 3.149l-.008 12.582a3.15 3.15 0 0 0 3.146 3.147h18.875a3.149 3.149 0 0 0 3.146-3.147v-12.586a3.149 3.149 0 0 0 -3.146-3.146zm-9.438 14.943a6.292 6.292 0 1 1 6.292-6.292 6.3 6.3 0 0 1 -6.292 6.292z"/></g></svg>