<svg height="10.71" viewBox="0 0 18.178 10.71" width="18.178" xmlns="http://www.w3.org/2000/svg"><g fill="#ffffff" stroke="#ffffff" stroke-width=".3"><path d="m17.78 111.656c-.141-.2-3.518-4.994-8.857-4.994-4.581 0-8.663 4.762-8.835 4.965a.373.373 0 0 0 0 .48c.172.2 4.254 4.965 8.835 4.965s8.663-4.762 8.835-4.965a.372.372 0 0 0 .022-.451zm-8.857 4.673c-3.673 0-7.164-3.5-8.051-4.461.886-.96 4.374-4.461 8.051-4.461 4.3 0 7.33 3.5 8.071 4.441-.855.928-4.367 4.481-8.071 4.481z" transform="translate(.169 -106.512)"/><path d="m173.636 170.662a2.974 2.974 0 1 0 2.974 2.974 2.977 2.977 0 0 0 -2.974-2.974zm0 5.205a2.231 2.231 0 1 1 2.231-2.231 2.233 2.233 0 0 1 -2.231 2.231z" transform="translate(-164.545 -168.281)"/></g></svg>