<svg height="17.6" viewBox="0 0 15.679 17.6" width="15.679" xmlns="http://www.w3.org/2000/svg"><g fill="#8e8484" transform="translate(-27.94)"><path d="m41.928 8.641v-2.493a6.148 6.148 0 0 0 -12.3 0v2.493a2.167 2.167 0 0 0 .172 4.259 6.149 6.149 0 0 0 11.951 0 2.167 2.167 0 0 0 .173-4.26zm-11.266-2.493a5.117 5.117 0 1 1 10.234 0v1.737a6.878 6.878 0 0 1 -2.276-1.327 5.126 5.126 0 0 1 -.974-1.11l-.381-.669-.473.606c-.019.024-1.79 2.235-6.129 3.173zm10.789 5.743h-.551l-.073.429a5.118 5.118 0 0 1 -10.087 0l-.073-.429h-.556a1.136 1.136 0 0 1 0-2.271h.52l.036-.007a13.033 13.033 0 0 0 6.481-3.1 7.746 7.746 0 0 0 3.752 2.457v.65h.555a1.136 1.136 0 1 1 0 2.271z"/><path d="m163.417 389.167h1.031v1.026h-1.031z" transform="translate(-130.82 -375.79)"/><path d="m132.917 323.167h1.031v1.025h-1.031z" transform="translate(-101.369 -312.058)"/><path d="m191.917 336h1.031v1.025h-1.031z" transform="translate(-158.34 -324.45)"/><path d="m318.583 389.167h1.031v1.026h-1.031z" transform="translate(-280.652 -375.79)"/><path d="m349.083 323.167h1.031v1.025h-1.031z" transform="translate(-310.104 -312.058)"/><path d="m290.083 336h1.031v1.025h-1.031z" transform="translate(-253.132 -324.45)"/></g></svg>