<svg height="17.865" viewBox="0 0 12.281 17.865" width="12.281" xmlns="http://www.w3.org/2000/svg"><g fill="#8e8484"><path d="m1.4 17.865h2.784a1.4 1.4 0 0 0 1.4-1.389s0 0 0-.006v-6.141a.279.279 0 0 0 -.284-.279h-.275v-4.137a.223.223 0 0 0 -.006-.027.221.221 0 0 0 .006-.027.279.279 0 0 0 -.279-.279h-.28v-5.301a.279.279 0 0 0 -.279-.279 3.074 3.074 0 0 0 -3.07 3.071v2.509h-.28a.279.279 0 0 0 -.279.279v4.19h-.279a.279.279 0 0 0 -.279.28v6.141a1.4 1.4 0 0 0 1.4 1.395zm2.489-17.287a2.515 2.515 0 0 1 -2.195 2.194 2.515 2.515 0 0 1 2.195-2.194zm-2.214 2.758a3.069 3.069 0 0 0 2.233-1.3v3.544h-2.233zm-.558 2.8h3.35v3.914h-3.35zm-.558 4.47h4.463v5.858s0 0 0 0a.839.839 0 0 1 -.837.837h-2.785a.839.839 0 0 1 -.837-.837zm0 0"/><path d="m304.217 310.179a.279.279 0 0 0 .279-.279v-5.582a.279.279 0 0 0 -.558 0v5.582a.279.279 0 0 0 .279.279zm0 0" transform="translate(-293.332 -293.43)"/><path d="m192.31 247.984a.279.279 0 0 0 -.279.279v7.537a1.4 1.4 0 0 0 1.4 1.395h2.789a1.4 1.4 0 0 0 1.4-1.389s0 0 0-.006v-7.538a.279.279 0 0 0 -.279-.279zm4.743 7.814s0 0 0 0a.839.839 0 0 1 -.837.837h-2.789a.839.839 0 0 1 -.837-.837v-6.422h4.464zm0-6.977h-4.463v-.278h4.464zm0 0" transform="translate(-185.331 -239.331)"/><path d="m112.2 317.862a.279.279 0 0 0 .279-.279v-5.3a.279.279 0 0 0 -.558 0v5.3a.279.279 0 0 0 .279.279zm0 0" transform="translate(-108.017 -301.113)"/></g></svg>