<svg height="10.907" viewBox="0 0 16.545 10.907" width="16.545" xmlns="http://www.w3.org/2000/svg"><path d="m16.4 92c-.11-.11-.268-.274-.468-.483-.647-.675-1.625-1.695-2.641-2.576-1.327-1.151-2.282-1.691-3.005-1.7a2.855 2.855 0 0 0 -1.733.491.473.473 0 0 1 -.564 0 2.853 2.853 0 0 0 -1.733-.491c-.724.009-1.679.549-3.005 1.7-1.016.881-1.994 1.9-2.641 2.576-.2.209-.358.373-.468.483a.488.488 0 0 0 -.142.309.723.723 0 0 0 .091.341 9.434 9.434 0 0 0 2.009 3.05 8.119 8.119 0 0 0 2.467 1.7 9.087 9.087 0 0 0 3.7.742 9.087 9.087 0 0 0 3.7-.742 8.118 8.118 0 0 0 2.467-1.7 9.435 9.435 0 0 0 2.009-3.051.775.775 0 0 0 .092-.338.485.485 0 0 0 -.135-.311zm-12.513-2.329c1.459-1.265 2.119-1.46 2.382-1.463a1.912 1.912 0 0 1 1.158.31 1.436 1.436 0 0 0 1.691 0 1.912 1.912 0 0 1 1.158-.31c.264 0 .924.2 2.382 1.463.91.789 1.8 1.706 2.431 2.363a5.607 5.607 0 0 1 -4.1-.271 2.349 2.349 0 0 0 -1.736-.118 3.562 3.562 0 0 1 -2.069 0 2.349 2.349 0 0 0 -1.736.118 5.553 5.553 0 0 1 -4.014.29c.636-.653 1.534-1.585 2.453-2.382zm4.385 7.5a7.443 7.443 0 0 1 -6.932-4.144 8.552 8.552 0 0 0 1.867.233 6.1 6.1 0 0 0 2.653-.617 1.37 1.37 0 0 1 1.04-.07 4.538 4.538 0 0 0 2.494.043q.075-.02.149-.043a1.37 1.37 0 0 1 1.04.07 6.1 6.1 0 0 0 2.653.617 8.769 8.769 0 0 0 1.983-.26 7.447 7.447 0 0 1 -6.946 4.176z" fill="#fff" transform="translate(-.001 -87.239)"/></svg>