<svg height="980pt" preserveAspectRatio="xMidYMid meet" viewBox="0 0 696 980" width="696pt" xmlns="http://www.w3.org/2000/svg"><path d="m2725 9767c-3-18-19-162-35-322-71-682-174-1198-352-1775-109-352-216-621-437-1100-88-190-263-513-272-502-4 4-16 54-28 112-49 238-132 491-261 795-67 157-252 561-303 660-23 46-26 48-31 25-3-14-12-142-21-285-18-298-40-551-61-712-31-242-143-603-331-1066-327-808-433-1122-517-1532-144-703-73-1390 204-1973 162-340 369-623 689-942 311-310 618-549 1246-967 230-153 285-187 285-179 0 12-66 171-152 366-270 612-320 830-289 1265 29 400 79 566 312 1035 159 319 292 535 329 535 24 0 37-60 50-234 21-266 15-329-89-976-27-170-47-312-45-314 13-14 393 490 581 769 160 239 290 538 399 920 97 336 147 605 165 885 6 93 11 171 12 172 1 0 49-50 106-112 505-554 817-1169 900-1775 30-216 39-541 21-755-37-428-142-773-468-1530-55-126-98-232-96-234 16-17 685 433 979 659 196 151 508 456 758 740 315 358 536 717 706 1143 319 801 365 1700 135 2622-224 896-712 1859-1291 2551-153 182-798 772-820 750-4-4 35-118 87-254 155-410 209-560 229-640 49-194 73-502 51-657l-13-90-47 145c-402 1230-1112 2217-1900 2642-78 42-195 95-327 147l-52 20zm511-694c135-107 384-355 491-488 314-393 566-841 777-1381 102-262 153-435 307-1040l91-361 73 76c183 191 307 352 360 466 74 157 130 388 144 595 5 73 12 134 15 137 10 11 35-19 104-125 173-267 402-695 524-982 452-1064 546-2053 281-2965-111-382-385-906-622-1189-210-250-659-714-668-689-3 7 7 77 22 155 64 341 80 553 72 938-7 308-20 427-72 637-213 869-687 1558-1595 2317-120 101-259 206-272 206-14 0-9-54 17-187 72-371 91-576 75-821-22-352-97-753-193-1037l-34-100-16 60c-50 180-107 333-174 465-72 142-257 431-280 438-13 3-39-72-79-228-51-201-79-259-299-625-184-307-284-488-360-648-231-491-302-842-277-1387 5-124 8-227 6-229-11-12-346 300-497 464-434 470-633 858-712 1386-26 174-37 438-25 629 28 478 120 812 435 1590 59 144 146 365 195 490 102 263 148 361 160 339 16-29 45-418 70-934 6-126 13-234 14-239 3-12 326 464 465 685 701 1117 1110 2226 1291 3504 12 82 24 153 26 157 14 23 60 1 160-79z" transform="matrix(.1 0 0 -.1 0 980)"/></svg>