<svg height="15.206" viewBox="0 0 15.206 15.206" width="15.206" xmlns="http://www.w3.org/2000/svg"><g fill="#8e8484"><path d="m13.622 0h-4.022a2.832 2.832 0 0 0 -2.013.835l-7.047 7.047a1.846 1.846 0 0 0 0 2.61l4.173 4.173a1.846 1.846 0 0 0 2.61 0l7.047-7.047a2.832 2.832 0 0 0 .836-2.018v-4.016a1.586 1.586 0 0 0 -1.584-1.584zm.95 5.6a2.2 2.2 0 0 1 -.649 1.567l-7.047 7.05a1.242 1.242 0 0 1 -1.714 0l-4.174-4.174a1.212 1.212 0 0 1 0-1.714l7.047-7.046a2.2 2.2 0 0 1 1.565-.649h4.019a.952.952 0 0 1 .95.95v4.016z"/><path d="m342.918 64a1.584 1.584 0 1 0 1.584 1.584 1.586 1.586 0 0 0 -1.584-1.584zm0 2.534a.95.95 0 1 1 .95-.95.951.951 0 0 1 -.95.95z" transform="translate(-331.197 -62.099)"/></g></svg>