<svg height="14.206" viewBox="0 0 14.206 14.206" width="14.206" xmlns="http://www.w3.org/2000/svg"><path d="m11.415 14.3a.444.444 0 0 1 -.18-.038l-4.1-1.825-4.1 1.825a.444.444 0 0 1 -.616-.494l.9-4.53-3.157-3.171a.445.445 0 0 1 .227-.75l4.531-.908 1.809-4.078a.462.462 0 0 1 .812 0l1.809 4.078 4.531.908a.445.445 0 0 1 .227.75l-3.162 3.167.9 4.53a.445.445 0 0 1 -.435.532zm-4.28-2.8a.441.441 0 0 1 .18.038l3.5 1.557-.783-3.922a.445.445 0 0 1 .121-.4l2.743-2.747-3.946-.79a.443.443 0 0 1 -.319-.255l-1.5-3.374-1.493 3.373a.443.443 0 0 1 -.319.255l-3.943.79 2.743 2.748a.445.445 0 0 1 .121.4l-.783 3.927 3.5-1.557a.441.441 0 0 1 .18-.038z" fill="#8e8484" transform="translate(-.032 -.09)"/></svg>